<svg viewBox="0 0 32 32" xmlns="http://www.w3.org/2000/svg"><path d="M29 8v5c0 1.1-.9 2-2 2h-1.21l-.1-1H6.31l-.1 1H5c-1.1 0-2-.9-2-2V8c0-1.1.9-2 2-2h22c1.1 0 2 .9 2 2Z" fill="#ffffff" class="fill-cfb1fc"></path><path d="M27 5H5C3.346 5 2 6.346 2 8v5c0 1.654 1.346 3 3 3h.098l-.093.897A1 1 0 0 0 6 18h20a1.001 1.001 0 0 0 .995-1.102L26.902 16H27c1.654 0 3-1.346 3-3V8c0-1.654-1.346-3-3-3ZM7.108 16l.104-1h17.576l.104 1H7.108ZM28 13c0 .551-.449 1-1 1h-.304l-.011-.102A1 1 0 0 0 25.69 13H6.31a1 1 0 0 0-.995.897l-.01.103H5c-.551 0-1-.449-1-1V8c0-.551.449-1 1-1h22c.551 0 1 .449 1 1v5Zm-1-3a1 1 0 0 1-1 1h-1a1 1 0 0 1 0-2h1a1 1 0 0 1 1 1Zm-4 0a1 1 0 0 1-1 1h-1a1 1 0 0 1 0-2h1a1 1 0 0 1 1 1Zm-1.33 15.242a1 1 0 1 1-1.34 1.484c-2.538-2.296-2.378-6.581-2.37-6.763.024-.55.497-.993 1.041-.953a1 1 0 0 1 .956 1.04c-.001.036-.121 3.533 1.714 5.192Zm6.237-.821a1 1 0 0 1-1.328.486c-.11-.051-2.698-1.285-3.667-4.624a1 1 0 0 1 1.921-.558c.707 2.436 2.57 3.36 2.588 3.368a1 1 0 0 1 .486 1.328ZM14.04 19.963c.008.182.168 4.467-2.37 6.763a.997.997 0 0 1-1.412-.071 1 1 0 0 1 .071-1.413c1.533-1.386 1.756-4.217 1.713-5.19a1 1 0 0 1 .955-1.043 1.008 1.008 0 0 1 1.044.954Zm-4.952.32c-.97 3.34-3.557 4.573-3.667 4.624a.999.999 0 0 1-1.328-.486 1 1 0 0 1 .48-1.326c.095-.045 1.89-.947 2.594-3.37a.999.999 0 1 1 1.921.558Z" fill="#000000" class="fill-9966cc"></path></svg>