<?xml version="1.0" ?><svg viewBox="0 0 256 256" xmlns="http://www.w3.org/2000/svg"><rect fill="none" height="256" width="256"/><rect fill="none" height="144" rx="8" stroke="#000" stroke-linecap="round" stroke-linejoin="round" stroke-width="16" width="40" x="56" y="56"/><rect fill="none" height="144" rx="8" stroke="#000" stroke-linecap="round" stroke-linejoin="round" stroke-width="16" width="40" x="160" y="56"/><path d="M200,80h24a8,8,0,0,1,8,8v80a8,8,0,0,1-8,8H200" fill="none" stroke="#000" stroke-linecap="round" stroke-linejoin="round" stroke-width="16"/><path d="M56,176H32a8,8,0,0,1-8-8V88a8,8,0,0,1,8-8H56" fill="none" stroke="#000" stroke-linecap="round" stroke-linejoin="round" stroke-width="16"/><line fill="none" stroke="#000" stroke-linecap="round" stroke-linejoin="round" stroke-width="16" x1="96" x2="160" y1="128" y2="128"/><line fill="none" stroke="#000" stroke-linecap="round" stroke-linejoin="round" stroke-width="16" x1="232" x2="248" y1="128" y2="128"/><line fill="none" stroke="#000" stroke-linecap="round" stroke-linejoin="round" stroke-width="16" x1="8" x2="24" y1="128" y2="128"/></svg>