<svg viewBox="0 0 32 32" xmlns="http://www.w3.org/2000/svg"><path d="M29 16v5a4 4 0 0 1-4 4H7a4 4 0 0 1-4-4v-5h26Z" fill="#ffffff" class="fill-cfb1fc"></path><path d="M30 15h-3v-5c0-2.099-1.63-3.805-3.686-3.968a3 3 0 0 0-3.814-.705l-1.732 1a1 1 0 0 0-.367 1.366l2 3.464a.999.999 0 0 0 1.367.366l1.731-1a2.978 2.978 0 0 0 1.398-1.82c.04-.147.057-.294.074-.44C24.58 8.604 25 9.25 25 10v5H2a1 1 0 1 0 0 2v4c0 2.757 2.243 5 5 5a1 1 0 1 0 2 0h14a1 1 0 1 0 2 0c2.757 0 5-2.243 5-5v-4a1 1 0 1 0 0-2Zm-8.034-6.815a.994.994 0 0 1-.466.606l-.866.5-1-1.731.865-.5a1.003 1.003 0 0 1 1.367.366c.134.231.169.5.1.759ZM28 21c0 1.654-1.346 3-3 3H7c-1.654 0-3-1.346-3-3v-4h24v4Zm-15-9a1 1 0 1 1 2 0 1 1 0 0 1-2 0Zm1-3a1 1 0 1 1 2 0 1 1 0 0 1-2 0Zm2 3a1 1 0 1 1 2 0 1 1 0 0 1-2 0Z" fill="#000000" class="fill-9966cc"></path></svg>