<svg viewBox="0 0 32 32" xmlns="http://www.w3.org/2000/svg"><path d="M4 16h24c1.104 0 2 .896 2 2v6H2v-6c0-1.104.896-2 2-2Z" fill="#ffffff" class="fill-cfb1fc"></path><path d="M29 15.184V8a1 1 0 0 0-2 0v.408c-1.461-.059-4.306-.378-6.25-1.906-2.012-1.582-4.673-1.506-4.715-1.504-.115-.003-2.772-.078-4.785 1.504C9.306 8.031 6.461 8.35 5 8.41v-.41a1 1 0 0 0-2 0v7.185A2.995 2.995 0 0 0 1 18v6a1 1 0 0 0 1 1h1v1a1 1 0 0 0 2 0v-1h22v1a1 1 0 0 0 2 0v-1h1a1 1 0 0 0 1-1v-6a2.995 2.995 0 0 0-2-2.816Zm-16.514-7.11c1.427-1.121 3.46-1.079 3.545-1.077.016-.003 2.054-.045 3.483 1.078 2.43 1.91 5.795 2.28 7.486 2.338V15h-2v-1c0-1.103-.897-2-2-2h-4c-1.103 0-2 .897-2 2v1h-2v-1c0-1.103-.897-2-2-2H9c-1.103 0-2 .897-2 2v1H5v-4.588c1.69-.058 5.055-.427 7.486-2.337ZM23 15h-4v-1h4v1Zm-10 0H9v-1h4v1Zm16 8H3v-5c0-.551.449-1 1-1h24c.551 0 1 .449 1 1v5Z" fill="#000000" class="fill-9966cc"></path></svg>