<svg viewBox="0 0 32 32" xmlns="http://www.w3.org/2000/svg"><rect height="14.355" rx="2" ry="2" transform="rotate(-45 9.202 22.722)" width="5.536" x="6.434" y="15.544" fill="#ffffff" class="fill-cfb1fc"></rect><rect height="14.355" rx="2" ry="2" transform="rotate(135 22.798 9.278)" width="5.536" x="20.03" y="2.101" fill="#ffffff" class="fill-cfb1fc"></rect><path d="m29.123 10.275-.63-.63.234-.233a2.992 2.992 0 0 0 0-4.226l-2.319-2.318c-1.129-1.129-3.097-1.13-4.226 0l-.233.233-.148-.148c-1.133-1.133-3.109-1.134-4.242 0l-1.086 1.086c-.567.566-.88 1.32-.88 2.121s.313 1.555.88 2.121l1.75 1.75-8.192 8.192-1.826-1.827a3.003 3.003 0 0 0-4.242 0l-1.086 1.086a3.003 3.003 0 0 0 0 4.243l.63.63-.235.233a2.992 2.992 0 0 0 0 4.226l2.32 2.318a2.968 2.968 0 0 0 2.113.876c.798 0 1.548-.311 2.112-.876l.234-.233.148.148a2.98 2.98 0 0 0 2.121.879c.801 0 1.555-.312 2.121-.879l1.086-1.086c.567-.567.88-1.32.88-2.121s-.313-1.555-.88-2.121l-1.75-1.75 8.192-8.192 1.826 1.826c.585.585 1.352.878 2.121.878s1.536-.293 2.121-.878l1.086-1.085a3.003 3.003 0 0 0 0-4.243Zm-5.526-5.993a1.01 1.01 0 0 1 1.397 0l2.32 2.318a.99.99 0 0 1 0 1.398l-.234.234-3.717-3.717.234-.233ZM8.403 27.718a1.011 1.011 0 0 1-1.397 0L4.686 25.4a.99.99 0 0 1 0-1.398l.234-.234 3.717 3.717-.234.233Zm6.003-1.878a.989.989 0 0 1-.293.706l-1.086 1.087a1.023 1.023 0 0 1-1.414 0l-7.322-7.322a1.002 1.002 0 0 1 0-1.415l1.086-1.086a.998.998 0 0 1 1.414 0l7.322 7.323a.99.99 0 0 1 .293.707Zm-2.043-5.285-.917-.918 8.19-8.191.918.917-8.191 8.192Zm15.346-7.451-1.086 1.086c-.39.39-1.023.39-1.414 0l-7.322-7.323c-.19-.189-.293-.44-.293-.707s.103-.518.293-.706l1.086-1.087a.993.993 0 0 1 .707-.293.99.99 0 0 1 .707.293l7.322 7.322c.39.39.39 1.024 0 1.415Z" fill="#000000" class="fill-9966cc"></path></svg>