<svg viewBox="0 0 32 32" xmlns="http://www.w3.org/2000/svg"><rect height="22" rx="8" ry="8" width="22" x="5" y="5" fill="#fcfcfc" class="fill-cfb1fc"></rect><path d="M24.967 13.026a.999.999 0 1 1-1.494 1.329C21.577 12.223 18.853 11 16 11s-5.577 1.223-7.473 3.354a.999.999 0 1 1-1.494-1.328C9.307 10.468 12.576 9 16 9s6.692 1.468 8.967 4.026ZM16 14a6.97 6.97 0 0 0-5.231 2.358 1.001 1.001 0 0 0 1.502 1.322C13.21 16.613 14.569 16 16 16s2.79.612 3.73 1.68a.998.998 0 0 0 1.412.09c.414-.365.454-.997.09-1.412A6.97 6.97 0 0 0 16 14Zm14-8v20c0 2.206-1.794 4-4 4H6c-2.206 0-4-1.794-4-4V6c0-2.206 1.794-4 4-4h20c2.206 0 4 1.794 4 4Zm-2 0c0-1.103-.897-2-2-2H6c-1.103 0-2 .897-2 2v20c0 1.103.897 2 2 2h20c1.103 0 2-.897 2-2V6ZM16 19a2 2 0 1 0 0 4 2 2 0 0 0 0-4Z" fill="#000000" fill-rule="evenodd" class="fill-9966cc"></path></svg>