<svg viewBox="0 0 32 32" xmlns="http://www.w3.org/2000/svg"><path d="M25 15H7c0-4.42 3.58-8 8-8h2c4.42 0 8 3.58 8 8Z" fill="#ffffff" class="fill-cfb1fc"></path><path d="M30 14h-4.059c-.484-4.356-4.09-7.774-8.523-7.979a1.495 1.495 0 0 0-1.413-1.017h-.01c-.658 0-1.208.427-1.409 1.017C10.15 6.224 6.543 9.643 6.059 14H2a1 1 0 1 0 0 2h1.28l.316.949A2.996 2.996 0 0 0 6.44 19h3.086l1.882 2.465a1 1 0 0 0 .52.355c.127.035 3.05.857 7.394 1.1l2.305 2.15-.165.095a1 1 0 1 0 .996 1.735l6.346-3.644a1 1 0 0 0-.996-1.734l-.156.089c-.436-.932-1.058-1.88-1.62-2.649a2.996 2.996 0 0 0 2.371-2.014L28.72 16H30a1 1 0 1 0 0-2ZM15 8h2c3.519 0 6.432 2.613 6.92 6H8.08c.488-3.387 3.401-6 6.92-6Zm8.443 16.028-3.021-2.818a1.003 1.003 0 0 0-.636-.269c-3.5-.165-6.125-.749-6.996-.964L12.044 19h11.484c.682.827 1.83 2.355 2.383 3.61l-2.468 1.418Zm3.065-7.712a1 1 0 0 1-.95.684H6.442a1 1 0 0 1-.949-.684L5.387 16h21.226l-.105.316Z" fill="#000000" class="fill-9966cc"></path></svg>