<svg width="32" height="32" xmlns="http://www.w3.org/2000/svg" clip-rule="evenodd">

 <g>
  <title>background</title>
  <rect fill="none" id="canvas_background" height="34" width="34" y="-1" x="-1"/>
 </g>
 <g>
  <title>Layer 1</title>
  <path stroke="#000000" id="svg_1" fill="#32b2ff" d="m24.883,18.439c1.751,0.42 3.122,0.952 3.935,1.571c0.416,0.316 0.682,0.633 0.682,0.99c0,0.22 -0.11,0.427 -0.289,0.631c-0.237,0.271 -0.589,0.525 -1.035,0.767c-2.317,1.26 -6.99,2.102 -12.367,2.102c-5.377,0 -10.049,-0.842 -12.367,-2.102c-0.445,-0.242 -0.797,-0.496 -1.035,-0.767c-0.179,-0.204 -0.288,-0.411 -0.288,-0.631c0,-0.326 0.226,-0.619 0.582,-0.911c0.704,-0.578 1.896,-1.082 3.429,-1.496c0.267,-0.072 0.425,-0.346 0.353,-0.613c-0.072,-0.266 -0.347,-0.424 -0.613,-0.352c-1.706,0.46 -3.021,1.045 -3.804,1.688c-0.636,0.522 -0.947,1.101 -0.947,1.684c0,0.8 0.623,1.612 1.846,2.277c2.408,1.309 7.257,2.223 12.844,2.223c5.588,0 10.437,-0.914 12.845,-2.223c1.223,-0.665 1.846,-1.477 1.846,-2.277c0,-0.619 -0.355,-1.237 -1.076,-1.786c-0.893,-0.679 -2.387,-1.286 -4.307,-1.747c-0.269,-0.064 -0.539,0.101 -0.603,0.37c-0.065,0.268 0.101,0.538 0.369,0.602z"/>
  <path stroke="#000000" id="svg_2" fill="#32b2ff" d="m9.431,18.765719c-0.642,-1.594 -1.345,-3.28 -1.169,-4.961c0.074,-0.702 0.534,-1.31 0.981,-1.928c0.548,-0.758 1.087,-1.524 1.219,-2.381c0.197,-1.282 -0.44,-2.593 -1.05,-3.773c-0.127,-0.245 -0.429,-0.341 -0.674,-0.214c-0.245,0.127 -0.341,0.429 -0.215,0.674c0.515,0.994 1.117,2.08 0.95,3.16c-0.109,0.708 -0.588,1.322 -1.04,1.948c-0.553,0.764 -1.074,1.541 -1.165,2.41c-0.193,1.84 0.533,3.695 1.236,5.439c0.103,0.256 0.395,0.38 0.651,0.277c0.256,-0.104 0.38,-0.395 0.276,-0.651z"/>
  <path stroke="#000000" id="svg_3" fill="#32b2ff" d="m16.449,21.864c-0.658,-2.331 -1.366,-4.804 -1.185,-7.264c0.077,-1.056 0.55,-1.983 1.02,-2.913c0.527,-1.042 1.054,-2.087 1.181,-3.266c0.19,-1.764 -0.44,-3.558 -1.027,-5.181c-0.094,-0.26 -0.381,-0.394 -0.64,-0.3c-0.26,0.093 -0.394,0.38 -0.301,0.64c0.538,1.485 1.147,3.12 0.974,4.734c-0.115,1.057 -0.607,1.987 -1.079,2.922c-0.53,1.047 -1.038,2.1 -1.125,3.291c-0.189,2.576 0.531,5.168 1.219,7.609c0.075,0.265 0.352,0.42 0.617,0.345c0.266,-0.075 0.421,-0.351 0.346,-0.617z"/>
  <path stroke="#000000" id="svg_4" fill="#32b2ff" d="m23.696,18.813c-0.643,-1.594 -1.346,-3.28 -1.169,-4.961c0.074,-0.702 0.533,-1.31 0.98,-1.928c0.548,-0.758 1.087,-1.524 1.219,-2.381c0.198,-1.282 -0.44,-2.593 -1.05,-3.773c-0.127,-0.245 -0.429,-0.341 -0.674,-0.214c-0.245,0.127 -0.341,0.429 -0.214,0.674c0.514,0.994 1.116,2.08 0.95,3.16c-0.109,0.708 -0.589,1.322 -1.041,1.948c-0.553,0.764 -1.074,1.541 -1.165,2.41c-0.193,1.84 0.533,3.695 1.236,5.439c0.104,0.256 0.395,0.38 0.651,0.277c0.256,-0.104 0.38,-0.395 0.277,-0.651z"/>
 </g>
</svg>