<svg width="512" height="512" xmlns="http://www.w3.org/2000/svg">
 <title/>

 <g>
  <title>background</title>
  <rect fill="none" id="canvas_background" height="402" width="582" y="-1" x="-1"/>
 </g>
 <g>
  <title>Layer 1</title>
  <path id="svg_1" fill="none" stroke="#ffad0a" stroke-linejoin="round" stroke-width="32px" d="m480,208l-172,0l-52,-160l-52,160l-172,0l140,96l-54,160l138,-100l138,100l-54,-160l140,-96z"/>
  <polygon fill="#ffad0a" stroke="#ffad0a" id="svg_2" points="256,47.24349933862686 256,363.24349933862686 118,463.24349933862686 172,303.24349933862686 32,207.24349933862686 204,207.24349933862686 256,47.24349933862686 "/>
  <polygon stroke="#ffad0a" transform="rotate(142.27145385742188 357.33319091796875,232.5484771728516) " fill="#ffad0a" id="svg_3" points="477.47042145903356,26.30184006134766 477.47042145903356,339.6381294610337 329.44418715471943,438.79514817019935 387.3674736672135,280.14391823553433 237.19597033057175,184.95311357695118 421.69241924214543,184.95311357695118 477.47042145903356,26.30184006134766 "/>
  <polygon stroke="#ffad0a" transform="rotate(-149.5397491455078 307.7824401855468,371.3663330078125) " fill="#ffad0a" id="svg_4" points="411.9439112241663,309.84505600838395 411.9439112241663,403.3100442559481 283.6020859888987,432.88758865957436 333.82280845004345,385.56352446481117 203.62095996600976,357.16912020314714 363.5832120117876,357.16912020314714 411.9439112241663,309.84505600838395 "/>
 </g>
</svg>