<svg viewBox="0 0 32 32" xml:space="preserve" xmlns="http://www.w3.org/2000/svg" fill-rule="evenodd" clip-rule="evenodd" stroke-linejoin="round" stroke-miterlimit="2"><path d="M24.883 18.439c1.751.42 3.122.952 3.935 1.571.416.316.682.633.682.99 0 .22-.11.427-.289.631-.237.271-.589.525-1.035.767-2.317 1.26-6.99 2.102-12.367 2.102-5.377 0-10.049-.842-12.367-2.102-.445-.242-.797-.496-1.035-.767-.179-.204-.288-.411-.288-.631 0-.326.226-.619.582-.911.704-.578 1.896-1.082 3.429-1.496a.5.5 0 1 0-.26-.965c-1.706.46-3.021 1.045-3.804 1.688-.636.522-.947 1.101-.947 1.684 0 .8.623 1.612 1.846 2.277 2.408 1.309 7.257 2.223 12.844 2.223 5.588 0 10.437-.914 12.845-2.223C29.877 22.612 30.5 21.8 30.5 21c0-.619-.355-1.237-1.076-1.786-.893-.679-2.387-1.286-4.307-1.747a.5.5 0 0 0-.234.972Z" fill="#000000" class="fill-32b2ff"></path><path d="M9.431 18.813c-.642-1.594-1.345-3.28-1.169-4.961.074-.702.534-1.31.981-1.928.548-.758 1.087-1.524 1.219-2.381.197-1.282-.44-2.593-1.05-3.773a.5.5 0 0 0-.889.46c.515.994 1.117 2.08.95 3.16-.109.708-.588 1.322-1.04 1.948-.553.764-1.074 1.541-1.165 2.41-.193 1.84.533 3.695 1.236 5.439a.5.5 0 0 0 .927-.374ZM16.449 21.864c-.658-2.331-1.366-4.804-1.185-7.264.077-1.056.55-1.983 1.02-2.913.527-1.042 1.054-2.087 1.181-3.266.19-1.764-.44-3.558-1.027-5.181a.5.5 0 1 0-.941.34c.538 1.485 1.147 3.12.974 4.734-.115 1.057-.607 1.987-1.079 2.922-.53 1.047-1.038 2.1-1.125 3.291-.189 2.576.531 5.168 1.219 7.609a.5.5 0 0 0 .963-.272ZM23.696 18.813c-.643-1.594-1.346-3.28-1.169-4.961.074-.702.533-1.31.98-1.928.548-.758 1.087-1.524 1.219-2.381.198-1.282-.44-2.593-1.05-3.773a.5.5 0 0 0-.888.46c.514.994 1.116 2.08.95 3.16-.109.708-.589 1.322-1.041 1.948-.553.764-1.074 1.541-1.165 2.41-.193 1.84.533 3.695 1.236 5.439a.501.501 0 0 0 .928-.374Z" fill="#000000" class="fill-32b2ff"></path></svg>