<svg viewBox="0 0 32 32" xmlns="http://www.w3.org/2000/svg"><path d="M4 16h24c1.104 0 2 .896 2 2v6H2v-6c0-1.104.896-2 2-2Z" fill="#ffffff" class="fill-cfb1fc"></path><path d="M29 15.184V8a1 1 0 1 0-2 0v.41c-1.461-.06-4.306-.38-6.25-1.908-2.015-1.583-4.668-1.517-4.716-1.504-.106-.01-2.77-.079-4.784 1.504C9.306 8.03 6.461 8.352 5 8.41V8a1 1 0 1 0-2 0v7.184A2.995 2.995 0 0 0 1 18v6a1 1 0 0 0 1 1h1v1a1 1 0 1 0 2 0v-1h22v1a1 1 0 1 0 2 0v-1h1a1 1 0 0 0 1-1v-6a2.995 2.995 0 0 0-2-2.816Zm-16.514-7.11c1.425-1.119 3.457-1.09 3.545-1.077.014-.01 2.053-.045 3.483 1.077 2.432 1.911 5.796 2.283 7.486 2.34V15h-4v-1c0-1.103-.898-2-2-2H11c-1.103 0-2 .897-2 2v1H5v-4.588c1.691-.058 5.056-.428 7.486-2.338ZM21 15H11v-1h10v1Zm8 8H3v-5a1 1 0 0 1 1-1h24a1 1 0 0 1 1 1v5Z" fill="#000000" class="fill-9966cc"></path></svg>