<svg viewBox="0 0 32 32" xmlns="http://www.w3.org/2000/svg"><path d="M24.087 28c1.249 1.126 3.51 1 3.51 1 1.43-1.158 1.968-3.114 1.403-5 0 0-3 0-5-2 0 0-1 2-4 2s-4-2-4-2-1 2-4 2-4-2-4-2c-2 2-5 2-5 2-.565 1.886-.027 3.842 1.403 5 0 0 2.261.126 3.51-1 0 0 4.859 2.255 8.087 0 3.228 2.255 8.087 0 8.087 0Z" fill="#ffffff" class="fill-cfb1fc"></path><path d="M29.003 23c-.026 0-2.625-.036-4.296-1.707a1 1 0 0 0-.856-.275 1.016 1.016 0 0 0-.739.522c-.027.05-.59 1.026-2.112 1.35V5c0-.551.449-1 1-1s1 .449 1 1a1 1 0 0 0 2 0c0-1.654-1.346-3-3-3s-3 1.346-3 3v4H9V5c0-.551.449-1 1-1s1 .449 1 1a1 1 0 0 0 2 0c0-1.654-1.346-3-3-3S7 3.346 7 5v16.56C5.335 22.966 3.022 23 3 23a1 1 0 0 0 0 2c.123 0 2.697-.02 4.857-1.572C8.584 24.148 9.89 25 12 25c1.979 0 3.25-.75 4-1.437.75.688 2.021 1.437 4 1.437 2.11 0 3.416-.852 4.143-1.572C26.303 24.98 28.878 25 29 25a.999.999 0 0 0 .003-2ZM19 11v5H9v-5h10Zm-2.106 10.553a.999.999 0 0 0-.882-.546 1.014 1.014 0 0 0-.9.532C15.08 21.6 14.298 23 12 23c-1.877 0-2.732-.923-3-1.291V18h10v4.89c-1.521-.323-2.084-1.299-2.106-1.337Zm11.7 7.394a.999.999 0 0 1-.942 1.052 5.733 5.733 0 0 1-.296.006c-.656 0-2.191-.091-3.413-.865-1.385.527-5.02 1.627-7.943.034-2.92 1.593-6.558.493-7.944-.034-1.497.949-3.465.871-3.709.858a1 1 0 1 1 .112-1.997c.514.027 2.022-.056 2.784-.744a1.002 1.002 0 0 1 1.09-.165c.043.02 4.383 1.983 7.094.088a1 1 0 0 1 1.146 0c2.725 1.905 7.05-.067 7.093-.087a.998.998 0 0 1 1.09.164c.762.687 2.268.767 2.787.744a1.004 1.004 0 0 1 1.05.946Z" fill="#000000" class="fill-9966cc"></path></svg>